<?xml version="1.0" standalone="no"?>
<!DOCTYPE svg PUBLIC "-//W3C//DTD SVG 20010904//EN"
 "http://www.w3.org/TR/2001/REC-SVG-20010904/DTD/svg10.dtd">
<svg version="1.0" xmlns="http://www.w3.org/2000/svg"
 width="4000.000000pt" height="6000.000000pt" viewBox="0 0 4000.000000 6000.000000"
 preserveAspectRatio="xMidYMid meet">

<g transform="translate(0.000000,6000.000000) scale(0.100000,-0.100000)"
fill="#000000" stroke="none">
<path d="M0 36737 c0 -22525 1 -23264 18 -23280 10 -10 28 -17 40 -17 19 0 22
-6 22 -40 0 -34 6 -47 40 -80 23 -22 45 -40 50 -40 4 0 22 -13 38 -30 24 -24
39 -30 71 -30 37 0 41 -2 41 -25 0 -22 4 -25 40 -25 33 0 40 -3 40 -19 0 -16
8 -20 43 -23 42 -3 42 -3 45 -45 3 -40 5 -43 32 -43 27 0 29 3 33 43 l4 42 1
-42 c2 -41 3 -42 39 -45 36 -3 38 -5 41 -40 l3 -38 50 0 c46 0 49 -2 49 -25 0
-21 5 -25 29 -25 22 0 30 -6 35 -25 5 -19 13 -25 35 -25 16 0 32 6 34 13 4 10
6 10 6 0 1 -8 16 -13 41 -13 l40 0 0 -70 0 -70 63 0 c77 0 97 -16 97 -78 l0
-42 80 0 c73 0 80 -2 80 -20 0 -16 7 -20 38 -21 l37 0 -33 -16 c-17 -9 -32
-19 -32 -23 0 -16 76 -40 125 -40 42 0 55 -3 55 -15 0 -8 5 -15 10 -15 6 0 10
7 10 15 0 8 7 15 15 15 12 0 15 -13 15 -60 l0 -60 40 0 c33 0 40 -3 40 -20 0
-18 7 -20 80 -20 l80 0 0 -34 c0 -62 5 -66 86 -66 l74 0 0 -30 c0 -16 5 -30
10 -30 6 0 10 -7 10 -16 0 -27 28 -44 87 -53 38 -6 47 -9 26 -10 -38 -1 -42
-10 -13 -31 11 -8 20 -22 20 -32 0 -11 7 -18 19 -18 11 0 33 -13 49 -30 24
-24 39 -30 71 -30 l41 0 0 -40 0 -40 40 0 c22 0 40 -4 40 -10 0 -6 33 -10 80
-10 l80 0 0 -40 0 -40 40 0 40 0 0 -60 0 -60 40 0 c22 0 40 -4 40 -10 0 -5 18
-10 40 -10 l40 0 0 -50 c0 -27 5 -50 10 -50 6 0 10 18 10 40 0 33 3 40 20 40
17 0 20 -7 20 -40 l0 -40 65 0 c57 0 65 -2 65 -18 0 -22 32 -62 49 -62 18 0
61 -46 63 -67 0 -10 4 2 8 27 l7 45 1 -42 2 -43 80 0 80 0 0 -40 c0 -29 4 -40
15 -40 11 0 15 -11 15 -40 0 -36 3 -40 25 -40 23 0 25 4 25 40 0 22 5 40 10
40 6 0 10 -19 10 -42 l0 -41 108 5 c59 2 90 3 70 1 l-38 -4 0 -49 c0 -41 5
-53 31 -79 17 -17 34 -31 39 -31 4 0 22 -13 40 -30 27 -25 40 -30 81 -30 l49
0 0 -40 0 -40 40 0 c22 0 40 -4 40 -10 0 -6 33 -10 80 -10 l80 0 0 -65 0 -65
40 0 c30 0 40 -4 40 -16 0 -9 14 -29 31 -45 26 -24 40 -29 80 -29 48 0 49 -1
49 -30 0 -28 2 -30 40 -30 33 0 40 -3 40 -20 0 -17 7 -20 50 -20 38 0 50 -4
50 -15 0 -18 44 -65 60 -65 6 0 22 -11 36 -25 14 -14 29 -25 34 -25 6 0 10 -7
10 -15 0 -12 16 -15 80 -15 l80 0 0 -65 0 -65 40 0 c29 0 40 -4 40 -15 0 -12
16 -15 80 -15 l80 0 0 -65 0 -65 40 0 c39 0 40 -1 40 -35 0 -34 1 -35 40 -35
22 0 40 -4 40 -10 0 -5 7 -10 15 -10 10 0 15 10 15 30 0 17 5 30 10 30 6 0 10
-13 10 -30 0 -20 5 -30 15 -30 10 0 15 -10 15 -30 0 -28 2 -30 40 -30 33 0 40
-3 40 -20 0 -17 7 -20 40 -20 l40 0 0 -40 0 -40 80 0 80 0 0 -41 c0 -33 6 -47
31 -70 39 -37 49 -36 49 1 0 20 5 30 15 30 10 0 15 -10 15 -30 0 -25 4 -30 25
-30 22 0 25 -4 25 -35 0 -34 1 -35 40 -35 29 0 40 -4 40 -15 0 -11 11 -15 40
-15 38 0 40 -2 40 -30 l0 -30 80 0 c47 0 80 -4 80 -10 0 -5 -7 -10 -17 -10
-15 0 -15 -1 0 -18 10 -11 17 -36 17 -60 l0 -42 40 0 c22 0 40 -4 40 -10 0 -5
18 -10 40 -10 l40 0 0 -50 0 -50 80 0 80 0 0 -40 0 -40 55 0 c30 0 55 -4 55
-10 0 -5 -4 -10 -10 -10 -15 0 -12 -29 5 -46 13 -14 17 -14 30 0 17 17 20 46
5 46 -5 0 -10 5 -10 10 0 6 7 10 15 10 11 0 15 -11 15 -41 0 -33 6 -47 31 -70
26 -24 40 -29 80 -29 l49 0 0 -50 0 -50 80 0 80 0 0 -40 0 -40 80 0 80 0 0
-55 0 -55 40 0 c29 0 40 -4 40 -15 0 -11 11 -15 40 -15 33 0 40 -3 40 -19 0
-11 14 -33 31 -50 29 -29 35 -31 110 -31 77 0 79 -1 79 -24 0 -27 16 -36 67
-36 33 0 34 -2 32 -33 -4 -69 -7 -67 81 -67 l80 0 0 -60 0 -60 40 0 c33 0 40
-3 40 -20 0 -17 7 -20 40 -20 31 0 40 4 40 17 0 15 1 15 18 0 10 -10 28 -17
40 -17 19 0 22 -6 22 -40 0 -34 6 -47 40 -80 23 -22 45 -40 50 -40 4 0 22 -13
38 -30 24 -24 39 -30 71 -30 37 0 41 -2 41 -25 0 -22 4 -25 40 -25 33 0 40 -3
40 -19 0 -16 8 -20 43 -23 42 -3 42 -3 45 -45 3 -40 5 -43 32 -43 27 0 29 3
33 43 l4 42 1 -42 c2 -41 3 -42 40 -45 35 -3 37 -5 40 -40 l3 -38 50 0 c46 0
49 -2 49 -25 0 -21 5 -25 29 -25 22 0 30 -6 35 -25 5 -19 13 -25 35 -25 16 0
32 6 34 13 4 9 6 9 6 0 1 -8 16 -13 41 -13 l40 0 0 -70 0 -70 63 0 c77 0 97
-16 97 -78 l0 -42 80 0 c73 0 80 -2 80 -20 0 -16 7 -20 38 -21 l37 0 -32 -16
c-18 -9 -33 -19 -33 -23 0 -16 76 -40 125 -40 42 0 55 -3 55 -15 0 -8 5 -15
10 -15 6 0 10 7 10 15 0 8 7 15 15 15 12 0 15 -13 15 -60 l0 -60 40 0 c33 0
40 -3 40 -20 0 -18 7 -20 80 -20 l80 0 0 -34 c0 -62 5 -66 86 -66 l74 0 0 -30
c0 -16 5 -30 10 -30 6 0 10 -7 10 -16 0 -27 28 -44 87 -53 38 -6 47 -9 26 -10
-38 -1 -42 -10 -13 -31 11 -8 20 -22 20 -32 0 -11 7 -18 19 -18 11 0 33 -13
49 -30 24 -24 39 -30 71 -30 l41 0 0 -40 0 -40 40 0 c22 0 40 -4 40 -10 0 -6
33 -10 80 -10 l80 0 0 -40 0 -40 40 0 40 0 0 -60 0 -60 40 0 c22 0 40 -4 40
-10 0 -5 18 -10 40 -10 l40 0 0 -50 c0 -27 5 -50 10 -50 6 0 10 18 10 40 0 33
3 40 20 40 17 0 20 -7 20 -40 l0 -40 65 0 c57 0 65 -2 65 -18 0 -22 32 -62 49
-62 18 0 61 -46 63 -67 0 -10 4 2 8 27 l7 45 1 -42 2 -43 80 0 80 0 0 -40 c0
-29 4 -40 15 -40 11 0 15 -11 15 -40 0 -36 3 -40 25 -40 23 0 25 4 25 40 0 22
5 40 10 40 6 0 10 -19 10 -42 l0 -41 108 5 c59 2 90 3 70 1 l-38 -4 0 -49 c0
-41 5 -53 31 -79 17 -17 34 -31 39 -31 4 0 22 -13 40 -30 27 -25 40 -30 81
-30 l49 0 0 -40 0 -40 40 0 c22 0 40 -4 40 -10 0 -6 33 -10 80 -10 l80 0 0
-65 0 -65 40 0 c30 0 40 -4 40 -16 0 -9 14 -29 31 -45 26 -24 40 -29 80 -29
48 0 49 -1 49 -30 0 -28 2 -30 40 -30 33 0 40 -3 40 -20 0 -17 7 -20 50 -20
38 0 50 -4 50 -15 0 -18 44 -65 60 -65 6 0 22 -11 36 -25 14 -14 29 -25 34
-25 6 0 10 -7 10 -15 0 -12 16 -15 80 -15 l80 0 0 -65 0 -65 40 0 c29 0 40 -4
40 -15 0 -12 16 -15 80 -15 l80 0 0 -65 0 -65 40 0 c39 0 40 -1 40 -35 0 -34
1 -35 40 -35 22 0 40 -4 40 -10 0 -5 7 -10 15 -10 10 0 15 10 15 30 0 17 5 30
10 30 6 0 10 -13 10 -30 0 -20 5 -30 15 -30 10 0 15 -10 15 -30 0 -28 2 -30
40 -30 33 0 40 -3 40 -20 0 -17 7 -20 40 -20 l40 0 0 -40 0 -40 80 0 80 0 0
-41 c0 -33 6 -47 31 -70 39 -37 49 -36 49 1 0 20 5 30 15 30 10 0 15 -10 15
-30 0 -25 4 -30 25 -30 22 0 25 -4 25 -35 0 -34 1 -35 40 -35 29 0 40 -4 40
-15 0 -11 11 -15 40 -15 38 0 40 -2 40 -30 l0 -30 80 0 c47 0 80 -4 80 -10 0
-5 -7 -10 -17 -10 -15 0 -15 -1 0 -18 10 -11 17 -36 17 -60 l0 -42 40 0 c22 0
40 -4 40 -10 0 -5 18 -10 40 -10 l40 0 0 -50 0 -50 80 0 80 0 0 -40 0 -40 55
0 c30 0 55 -4 55 -10 0 -5 -4 -10 -10 -10 -15 0 -12 -29 5 -46 13 -14 17 -14
30 0 17 17 20 46 5 46 -5 0 -10 5 -10 10 0 6 7 10 15 10 11 0 15 -11 15 -41 0
-33 6 -47 31 -70 26 -24 40 -29 80 -29 l49 0 0 -50 0 -50 80 0 80 0 0 -40 0
-40 80 0 80 0 0 -55 0 -55 40 0 c29 0 40 -4 40 -15 0 -11 11 -15 40 -15 33 0
40 -3 40 -19 0 -11 14 -33 31 -50 29 -29 35 -31 110 -31 77 0 79 -1 79 -24 0
-27 16 -36 67 -36 33 0 34 -2 32 -32 -4 -70 -7 -68 81 -68 l80 0 0 -60 0 -60
40 0 c33 0 40 -3 40 -20 0 -17 7 -20 40 -20 31 0 40 4 40 17 0 15 1 15 18 0
10 -10 28 -17 40 -17 19 0 22 -6 22 -40 0 -34 6 -47 40 -80 23 -22 45 -40 50
-40 4 0 22 -13 38 -30 24 -24 39 -30 71 -30 37 0 41 -2 41 -25 0 -22 4 -25 40
-25 33 0 40 -3 40 -19 0 -16 8 -20 43 -23 42 -3 42 -3 45 -45 3 -40 5 -43 32
-43 27 0 29 3 33 43 l4 42 1 -42 c2 -41 3 -42 40 -45 35 -3 37 -5 40 -40 l3
-38 50 0 c46 0 49 -2 49 -25 0 -21 5 -25 29 -25 22 0 30 -6 35 -25 5 -19 13
-25 35 -25 16 0 32 6 34 13 4 10 6 10 6 0 1 -8 16 -13 41 -13 l40 0 0 -70 0
-70 63 0 c77 0 97 -16 97 -78 l0 -42 80 0 c73 0 80 -2 80 -20 0 -16 7 -20 38
-21 l37 0 -32 -16 c-18 -9 -33 -19 -33 -23 0 -16 76 -40 125 -40 42 0 55 -3
55 -15 0 -8 5 -15 10 -15 6 0 10 7 10 15 0 8 7 15 15 15 12 0 15 -13 15 -60
l0 -60 40 0 c33 0 40 -3 40 -20 0 -18 7 -20 80 -20 l80 0 0 -34 c0 -62 5 -66
86 -66 l74 0 0 -30 c0 -16 5 -30 10 -30 6 0 10 -7 10 -16 0 -27 28 -44 87 -53
38 -6 47 -9 26 -10 -38 -1 -42 -10 -13 -31 11 -8 20 -22 20 -32 0 -11 7 -18
19 -18 11 0 33 -14 49 -30 24 -24 39 -30 71 -30 l41 0 0 -40 0 -40 40 0 c22 0
40 -4 40 -10 0 -6 33 -10 80 -10 l80 0 0 -40 0 -40 40 0 40 0 0 -60 0 -60 40
0 c22 0 40 -4 40 -10 0 -5 18 -10 40 -10 l40 0 0 -50 c0 -27 5 -50 10 -50 6 0
10 18 10 40 0 33 3 40 20 40 17 0 20 -7 20 -40 l0 -40 65 0 c57 0 65 -2 65
-18 0 -22 32 -62 49 -62 18 0 61 -46 63 -67 0 -10 4 2 8 27 l7 45 1 -42 2 -43
80 0 80 0 0 -40 c0 -29 4 -40 15 -40 11 0 15 -11 15 -40 0 -36 3 -40 25 -40
23 0 25 4 25 40 0 22 5 40 10 40 6 0 10 -19 10 -42 l0 -41 108 5 c59 2 90 3
70 1 l-38 -4 0 -49 c0 -41 5 -53 31 -79 17 -17 34 -31 39 -31 4 0 22 -13 40
-30 27 -25 40 -30 81 -30 l49 0 0 -40 0 -40 40 0 c22 0 40 -4 40 -10 0 -6 33
-10 80 -10 l80 0 0 -65 0 -65 40 0 c30 0 40 -4 40 -16 0 -9 14 -29 31 -45 26
-24 40 -29 80 -29 48 0 49 -1 49 -30 0 -28 2 -30 40 -30 33 0 40 -3 40 -20 0
-16 7 -20 38 -21 20 -1 43 -1 50 0 6 1 12 -5 12 -14 0 -22 45 -65 69 -65 11 0
22 -9 26 -20 3 -11 11 -20 16 -20 5 0 9 -9 9 -20 0 -19 7 -20 90 -20 l90 0 0
-65 0 -65 40 0 c29 0 40 -4 40 -15 0 -13 1113 -15 9960 -15 l9960 0 0 30000 0
30000 -20000 0 -20000 0 0 -23263z m530 -23522 c0 -8 -4 -15 -10 -15 -5 0 -10
7 -10 15 0 8 5 15 10 15 6 0 10 -7 10 -15z m1630 -1120 c0 -8 -7 -15 -16 -15
-14 0 -14 3 -4 15 7 8 14 15 16 15 2 0 4 -7 4 -15z m180 -160 c10 -12 10 -15
-4 -15 -9 0 -16 7 -16 15 0 8 2 15 4 15 2 0 9 -7 16 -15z m1163 -662 c-13 -2
-33 -2 -45 0 -13 2 -3 4 22 4 25 0 35 -2 23 -4z m17 -33 c0 -5 -18 -10 -40
-10 -22 0 -40 5 -40 10 0 6 18 10 40 10 22 0 40 -4 40 -10z m560 -350 c0 -5
-7 -10 -16 -10 -8 0 -12 5 -9 10 3 6 10 10 16 10 5 0 9 -4 9 -10z m530 -395
c0 -8 -4 -15 -10 -15 -5 0 -10 7 -10 15 0 8 5 15 10 15 6 0 10 -7 10 -15z
m470 -325 c0 -5 -5 -10 -11 -10 -5 0 -7 5 -4 10 3 6 8 10 11 10 2 0 4 -4 4
-10z m60 -75 c10 -12 10 -15 -4 -15 -9 0 -16 7 -16 15 0 8 2 15 4 15 2 0 9 -7
16 -15z m328 -156 c-19 -13 -28 -11 -28 5 0 9 7 12 21 9 16 -4 17 -8 7 -14z
m972 -649 c0 -5 -5 -10 -11 -10 -5 0 -7 5 -4 10 3 6 8 10 11 10 2 0 4 -4 4
-10z m940 -642 c0 -5 -4 -8 -10 -8 -5 0 -10 10 -10 23 0 18 2 19 10 7 5 -8 10
-18 10 -22z m830 -553 c0 -8 -4 -15 -10 -15 -5 0 -10 7 -10 15 0 8 5 15 10 15
6 0 10 -7 10 -15z m1630 -1120 c0 -8 -7 -15 -16 -15 -14 0 -14 3 -4 15 7 8 14
15 16 15 2 0 4 -7 4 -15z m180 -160 c10 -12 10 -15 -4 -15 -9 0 -16 7 -16 15
0 8 2 15 4 15 2 0 9 -7 16 -15z m1163 -662 c-13 -2 -33 -2 -45 0 -13 2 -3 4
22 4 25 0 35 -2 23 -4z m17 -33 c0 -5 -18 -10 -40 -10 -22 0 -40 5 -40 10 0 6
18 10 40 10 22 0 40 -4 40 -10z m560 -350 c0 -5 -7 -10 -16 -10 -8 0 -12 5 -9
10 3 6 10 10 16 10 5 0 9 -4 9 -10z m530 -395 c0 -8 -4 -15 -10 -15 -5 0 -10
7 -10 15 0 8 5 15 10 15 6 0 10 -7 10 -15z m470 -325 c0 -5 -5 -10 -11 -10 -5
0 -7 5 -4 10 3 6 8 10 11 10 2 0 4 -4 4 -10z m60 -75 c10 -12 10 -15 -4 -15
-9 0 -16 7 -16 15 0 8 2 15 4 15 2 0 9 -7 16 -15z m328 -156 c-19 -13 -28 -11
-28 5 0 9 7 12 21 9 16 -4 17 -8 7 -14z m972 -649 c0 -5 -5 -10 -11 -10 -5 0
-7 5 -4 10 3 6 8 10 11 10 2 0 4 -4 4 -10z m940 -642 c0 -5 -4 -8 -10 -8 -5 0
-10 10 -10 23 0 18 2 19 10 7 5 -8 10 -18 10 -22z m830 -553 c0 -8 -4 -15 -10
-15 -5 0 -10 7 -10 15 0 8 5 15 10 15 6 0 10 -7 10 -15z m1630 -1120 c0 -8 -7
-15 -16 -15 -14 0 -14 3 -4 15 7 8 14 15 16 15 2 0 4 -7 4 -15z m180 -160 c10
-12 10 -15 -4 -15 -9 0 -16 7 -16 15 0 8 2 15 4 15 2 0 9 -7 16 -15z m1163
-662 c-13 -2 -33 -2 -45 0 -13 2 -3 4 22 4 25 0 35 -2 23 -4z m17 -33 c0 -5
-18 -10 -40 -10 -22 0 -40 5 -40 10 0 6 18 10 40 10 22 0 40 -4 40 -10z m560
-350 c0 -5 -7 -10 -16 -10 -8 0 -12 5 -9 10 3 6 10 10 16 10 5 0 9 -4 9 -10z"/>
</g>
</svg>
